<mxfile host="app.diagrams.net" modified="2022-12-07T09:14:34.606Z" agent="5.0 (Windows)" etag="0AscfhGbhBIDMtVkNw5R" version="20.6.0" type="github">
  <diagram id="R2lEEEUBdFMjLlhIrx00" name="Page-1">
    <mxGraphModel dx="3122" dy="1880" grid="1" gridSize="10" guides="1" tooltips="1" connect="1" arrows="1" fold="1" page="1" pageScale="1" pageWidth="850" pageHeight="1100" math="0" shadow="0" extFonts="Permanent Marker^https://fonts.googleapis.com/css?family=Permanent+Marker">
      <root>
        <mxCell id="0" />
        <mxCell id="1" parent="0" />
        <mxCell id="iz5O2robkFM4ROenjmBi-13" value="ist ein" style="edgeStyle=none;rounded=0;orthogonalLoop=1;jettySize=auto;html=1;endArrow=classic;endFill=1;" edge="1" parent="1" source="gRnNfKeBFgU3KXUvMVqS-1" target="iz5O2robkFM4ROenjmBi-12">
          <mxGeometry relative="1" as="geometry" />
        </mxCell>
        <mxCell id="gRnNfKeBFgU3KXUvMVqS-1" value="Lehrender" style="rounded=1;arcSize=10;whiteSpace=wrap;html=1;align=center;" parent="1" vertex="1">
          <mxGeometry x="240" y="35" width="100" height="40" as="geometry" />
        </mxCell>
        <mxCell id="gRnNfKeBFgU3KXUvMVqS-2" value="&lt;div&gt;Modul&lt;/div&gt;" style="rounded=1;arcSize=10;whiteSpace=wrap;html=1;align=center;fillColor=#ffe6cc;strokeColor=#d79b00;" parent="1" vertex="1">
          <mxGeometry x="520" y="530" width="100" height="40" as="geometry" />
        </mxCell>
        <mxCell id="gRnNfKeBFgU3KXUvMVqS-3" value="&lt;div&gt;Plan&lt;/div&gt;&amp;nbsp;(Fächerverteilung)" style="rounded=1;arcSize=10;whiteSpace=wrap;html=1;align=center;" parent="1" vertex="1">
          <mxGeometry x="-70" y="300" width="100" height="40" as="geometry" />
        </mxCell>
        <mxCell id="gRnNfKeBFgU3KXUvMVqS-5" value="&lt;div&gt;Studiengang&lt;/div&gt;" style="rounded=1;arcSize=10;whiteSpace=wrap;html=1;align=center;" parent="1" vertex="1">
          <mxGeometry x="750" y="20" width="100" height="40" as="geometry" />
        </mxCell>
        <mxCell id="gRnNfKeBFgU3KXUvMVqS-6" value="SPO" style="rounded=1;arcSize=10;whiteSpace=wrap;html=1;align=center;fillColor=#ffe6cc;strokeColor=#d79b00;" parent="1" vertex="1">
          <mxGeometry x="990" y="290" width="100" height="40" as="geometry" />
        </mxCell>
        <mxCell id="gRnNfKeBFgU3KXUvMVqS-9" value="Veranstaltung" style="rounded=1;arcSize=10;whiteSpace=wrap;html=1;align=center;fillColor=#ffe6cc;strokeColor=#d79b00;" parent="1" vertex="1">
          <mxGeometry x="275" y="700" width="100" height="40" as="geometry" />
        </mxCell>
        <mxCell id="gRnNfKeBFgU3KXUvMVqS-11" value="m" style="rounded=0;orthogonalLoop=1;jettySize=auto;html=1;endArrow=none;endFill=0;" parent="1" source="gRnNfKeBFgU3KXUvMVqS-10" target="gRnNfKeBFgU3KXUvMVqS-36" edge="1">
          <mxGeometry relative="1" as="geometry" />
        </mxCell>
        <mxCell id="gRnNfKeBFgU3KXUvMVqS-12" value="n" style="edgeStyle=orthogonalEdgeStyle;rounded=0;orthogonalLoop=1;jettySize=auto;html=1;exitX=0.5;exitY=1;exitDx=0;exitDy=0;endArrow=none;endFill=0;" parent="1" source="gRnNfKeBFgU3KXUvMVqS-10" target="gRnNfKeBFgU3KXUvMVqS-2" edge="1">
          <mxGeometry relative="1" as="geometry" />
        </mxCell>
        <mxCell id="gRnNfKeBFgU3KXUvMVqS-10" value="wird angeboten" style="shape=rhombus;perimeter=rhombusPerimeter;whiteSpace=wrap;html=1;align=center;" parent="1" vertex="1">
          <mxGeometry x="520" y="420" width="120" height="60" as="geometry" />
        </mxCell>
        <mxCell id="gRnNfKeBFgU3KXUvMVqS-18" style="rounded=0;orthogonalLoop=1;jettySize=auto;html=1;endArrow=none;endFill=0;" parent="1" source="gRnNfKeBFgU3KXUvMVqS-17" target="gRnNfKeBFgU3KXUvMVqS-6" edge="1">
          <mxGeometry relative="1" as="geometry" />
        </mxCell>
        <mxCell id="gRnNfKeBFgU3KXUvMVqS-17" value="Gültig ab" style="ellipse;whiteSpace=wrap;html=1;align=center;" parent="1" vertex="1">
          <mxGeometry x="1080" y="210" width="100" height="40" as="geometry" />
        </mxCell>
        <mxCell id="gRnNfKeBFgU3KXUvMVqS-20" style="rounded=0;orthogonalLoop=1;jettySize=auto;html=1;endArrow=none;endFill=0;" parent="1" source="gRnNfKeBFgU3KXUvMVqS-19" target="gRnNfKeBFgU3KXUvMVqS-2" edge="1">
          <mxGeometry relative="1" as="geometry" />
        </mxCell>
        <mxCell id="gRnNfKeBFgU3KXUvMVqS-21" style="edgeStyle=none;rounded=0;orthogonalLoop=1;jettySize=auto;html=1;endArrow=none;endFill=0;" parent="1" source="gRnNfKeBFgU3KXUvMVqS-19" target="gRnNfKeBFgU3KXUvMVqS-9" edge="1">
          <mxGeometry relative="1" as="geometry">
            <mxPoint x="440" y="826.9565217391305" as="targetPoint" />
          </mxGeometry>
        </mxCell>
        <mxCell id="gRnNfKeBFgU3KXUvMVqS-19" value="Relationship" style="shape=rhombus;perimeter=rhombusPerimeter;whiteSpace=wrap;html=1;align=center;" parent="1" vertex="1">
          <mxGeometry x="400" y="690" width="120" height="60" as="geometry" />
        </mxCell>
        <mxCell id="gRnNfKeBFgU3KXUvMVqS-22" value="Studierendengruppe" style="rounded=1;arcSize=10;whiteSpace=wrap;html=1;align=center;fillColor=#ffe6cc;strokeColor=#d79b00;" parent="1" vertex="1">
          <mxGeometry x="530" y="130" width="100" height="40" as="geometry" />
        </mxCell>
        <mxCell id="gRnNfKeBFgU3KXUvMVqS-26" value="n" style="edgeStyle=none;rounded=0;orthogonalLoop=1;jettySize=auto;html=1;endArrow=none;endFill=0;" parent="1" source="gRnNfKeBFgU3KXUvMVqS-24" target="gRnNfKeBFgU3KXUvMVqS-53" edge="1">
          <mxGeometry relative="1" as="geometry" />
        </mxCell>
        <mxCell id="gRnNfKeBFgU3KXUvMVqS-24" value="nimmt teil" style="shape=rhombus;perimeter=rhombusPerimeter;whiteSpace=wrap;html=1;align=center;" parent="1" vertex="1">
          <mxGeometry x="360" y="180" width="120" height="60" as="geometry" />
        </mxCell>
        <mxCell id="gRnNfKeBFgU3KXUvMVqS-29" style="edgeStyle=none;rounded=0;orthogonalLoop=1;jettySize=auto;html=1;endArrow=none;endFill=0;" parent="1" source="gRnNfKeBFgU3KXUvMVqS-28" target="gRnNfKeBFgU3KXUvMVqS-3" edge="1">
          <mxGeometry relative="1" as="geometry" />
        </mxCell>
        <mxCell id="gRnNfKeBFgU3KXUvMVqS-28" value="Semester" style="ellipse;whiteSpace=wrap;html=1;align=center;" parent="1" vertex="1">
          <mxGeometry x="-200" y="290" width="100" height="40" as="geometry" />
        </mxCell>
        <mxCell id="gRnNfKeBFgU3KXUvMVqS-36" value="Fachsemester" style="rounded=1;arcSize=10;whiteSpace=wrap;html=1;align=center;" parent="1" vertex="1">
          <mxGeometry x="550" y="340" width="100" height="40" as="geometry" />
        </mxCell>
        <mxCell id="gRnNfKeBFgU3KXUvMVqS-39" value="n" style="edgeStyle=none;rounded=0;orthogonalLoop=1;jettySize=auto;html=1;endArrow=none;endFill=0;" parent="1" source="gRnNfKeBFgU3KXUvMVqS-38" target="gRnNfKeBFgU3KXUvMVqS-36" edge="1">
          <mxGeometry relative="1" as="geometry" />
        </mxCell>
        <mxCell id="gRnNfKeBFgU3KXUvMVqS-40" value="1" style="edgeStyle=none;rounded=0;orthogonalLoop=1;jettySize=auto;html=1;endArrow=none;endFill=0;" parent="1" source="gRnNfKeBFgU3KXUvMVqS-38" target="gRnNfKeBFgU3KXUvMVqS-5" edge="1">
          <mxGeometry relative="1" as="geometry" />
        </mxCell>
        <mxCell id="gRnNfKeBFgU3KXUvMVqS-38" value="Relationship" style="shape=rhombus;perimeter=rhombusPerimeter;whiteSpace=wrap;html=1;align=center;" parent="1" vertex="1">
          <mxGeometry x="730" y="210" width="120" height="60" as="geometry" />
        </mxCell>
        <mxCell id="gRnNfKeBFgU3KXUvMVqS-44" value="Schwerpunkt" style="rounded=1;arcSize=10;whiteSpace=wrap;html=1;align=center;" parent="1" vertex="1">
          <mxGeometry x="990" y="530" width="100" height="40" as="geometry" />
        </mxCell>
        <mxCell id="gRnNfKeBFgU3KXUvMVqS-46" style="edgeStyle=none;rounded=0;orthogonalLoop=1;jettySize=auto;html=1;endArrow=none;endFill=0;" parent="1" source="gRnNfKeBFgU3KXUvMVqS-45" target="gRnNfKeBFgU3KXUvMVqS-2" edge="1">
          <mxGeometry relative="1" as="geometry" />
        </mxCell>
        <mxCell id="gRnNfKeBFgU3KXUvMVqS-47" style="edgeStyle=none;rounded=0;orthogonalLoop=1;jettySize=auto;html=1;endArrow=none;endFill=0;" parent="1" source="gRnNfKeBFgU3KXUvMVqS-45" target="gRnNfKeBFgU3KXUvMVqS-44" edge="1">
          <mxGeometry relative="1" as="geometry" />
        </mxCell>
        <mxCell id="gRnNfKeBFgU3KXUvMVqS-45" value="gehört zu" style="shape=rhombus;perimeter=rhombusPerimeter;whiteSpace=wrap;html=1;align=center;" parent="1" vertex="1">
          <mxGeometry x="740" y="520" width="120" height="60" as="geometry" />
        </mxCell>
        <mxCell id="gRnNfKeBFgU3KXUvMVqS-49" style="edgeStyle=none;rounded=0;orthogonalLoop=1;jettySize=auto;html=1;endArrow=none;endFill=0;" parent="1" source="gRnNfKeBFgU3KXUvMVqS-48" target="gRnNfKeBFgU3KXUvMVqS-44" edge="1">
          <mxGeometry relative="1" as="geometry" />
        </mxCell>
        <mxCell id="gRnNfKeBFgU3KXUvMVqS-50" style="edgeStyle=none;rounded=0;orthogonalLoop=1;jettySize=auto;html=1;endArrow=none;endFill=0;" parent="1" source="gRnNfKeBFgU3KXUvMVqS-48" target="gRnNfKeBFgU3KXUvMVqS-6" edge="1">
          <mxGeometry relative="1" as="geometry">
            <mxPoint x="1040" y="370" as="sourcePoint" />
          </mxGeometry>
        </mxCell>
        <mxCell id="gRnNfKeBFgU3KXUvMVqS-48" value="Relationship" style="shape=rhombus;perimeter=rhombusPerimeter;whiteSpace=wrap;html=1;align=center;" parent="1" vertex="1">
          <mxGeometry x="980" y="400" width="120" height="60" as="geometry" />
        </mxCell>
        <mxCell id="gRnNfKeBFgU3KXUvMVqS-59" value="m" style="edgeStyle=none;rounded=0;orthogonalLoop=1;jettySize=auto;html=1;endArrow=none;endFill=0;" parent="1" source="gRnNfKeBFgU3KXUvMVqS-53" target="gRnNfKeBFgU3KXUvMVqS-55" edge="1">
          <mxGeometry relative="1" as="geometry" />
        </mxCell>
        <mxCell id="gRnNfKeBFgU3KXUvMVqS-53" value="&lt;div&gt;Planelement&lt;/div&gt;" style="rounded=1;arcSize=10;whiteSpace=wrap;html=1;align=center;fillColor=#ffe6cc;strokeColor=#d79b00;" parent="1" vertex="1">
          <mxGeometry x="240" y="300" width="100" height="40" as="geometry" />
        </mxCell>
        <mxCell id="gRnNfKeBFgU3KXUvMVqS-60" value="n" style="edgeStyle=none;rounded=0;orthogonalLoop=1;jettySize=auto;html=1;endArrow=none;endFill=0;" parent="1" source="gRnNfKeBFgU3KXUvMVqS-55" target="gRnNfKeBFgU3KXUvMVqS-1" edge="1">
          <mxGeometry relative="1" as="geometry" />
        </mxCell>
        <mxCell id="gRnNfKeBFgU3KXUvMVqS-55" value="lehrt" style="shape=rhombus;perimeter=rhombusPerimeter;whiteSpace=wrap;html=1;align=center;" parent="1" vertex="1">
          <mxGeometry x="230" y="180" width="120" height="60" as="geometry" />
        </mxCell>
        <mxCell id="gRnNfKeBFgU3KXUvMVqS-57" value="m" style="edgeStyle=none;rounded=0;orthogonalLoop=1;jettySize=auto;html=1;endArrow=none;endFill=0;startArrow=none;" parent="1" source="gRnNfKeBFgU3KXUvMVqS-56" target="gRnNfKeBFgU3KXUvMVqS-53" edge="1">
          <mxGeometry relative="1" as="geometry">
            <mxPoint x="290" y="360" as="sourcePoint" />
          </mxGeometry>
        </mxCell>
        <mxCell id="gRnNfKeBFgU3KXUvMVqS-58" value="n" style="edgeStyle=none;rounded=0;orthogonalLoop=1;jettySize=auto;html=1;endArrow=none;endFill=0;" parent="1" source="gRnNfKeBFgU3KXUvMVqS-56" target="gRnNfKeBFgU3KXUvMVqS-9" edge="1">
          <mxGeometry relative="1" as="geometry" />
        </mxCell>
        <mxCell id="gRnNfKeBFgU3KXUvMVqS-56" value="realisiert" style="shape=rhombus;perimeter=rhombusPerimeter;whiteSpace=wrap;html=1;align=center;" parent="1" vertex="1">
          <mxGeometry x="225" y="470" width="120" height="60" as="geometry" />
        </mxCell>
        <mxCell id="gRnNfKeBFgU3KXUvMVqS-63" value="n" style="edgeStyle=none;rounded=0;orthogonalLoop=1;jettySize=auto;html=1;endArrow=none;endFill=0;" parent="1" source="gRnNfKeBFgU3KXUvMVqS-61" target="gRnNfKeBFgU3KXUvMVqS-53" edge="1">
          <mxGeometry relative="1" as="geometry" />
        </mxCell>
        <mxCell id="gRnNfKeBFgU3KXUvMVqS-64" value="1" style="edgeStyle=none;rounded=0;orthogonalLoop=1;jettySize=auto;html=1;endArrow=none;endFill=0;" parent="1" source="gRnNfKeBFgU3KXUvMVqS-61" target="gRnNfKeBFgU3KXUvMVqS-3" edge="1">
          <mxGeometry relative="1" as="geometry" />
        </mxCell>
        <mxCell id="gRnNfKeBFgU3KXUvMVqS-61" value="Relationship" style="shape=rhombus;perimeter=rhombusPerimeter;whiteSpace=wrap;html=1;align=center;" parent="1" vertex="1">
          <mxGeometry x="80" y="290" width="120" height="60" as="geometry" />
        </mxCell>
        <mxCell id="gRnNfKeBFgU3KXUvMVqS-65" value="&lt;div&gt;Termin (aus HIS)&lt;/div&gt;&lt;div&gt;Ist-Zustand&lt;br&gt;&lt;/div&gt;" style="rounded=1;arcSize=10;whiteSpace=wrap;html=1;align=center;" parent="1" vertex="1">
          <mxGeometry x="-110" y="750" width="100" height="40" as="geometry" />
        </mxCell>
        <mxCell id="gRnNfKeBFgU3KXUvMVqS-67" value="n" style="edgeStyle=none;rounded=0;orthogonalLoop=1;jettySize=auto;html=1;endArrow=none;endFill=0;" parent="1" source="gRnNfKeBFgU3KXUvMVqS-66" target="gRnNfKeBFgU3KXUvMVqS-65" edge="1">
          <mxGeometry relative="1" as="geometry" />
        </mxCell>
        <mxCell id="gRnNfKeBFgU3KXUvMVqS-68" value="1" style="edgeStyle=none;rounded=0;orthogonalLoop=1;jettySize=auto;html=1;endArrow=none;endFill=0;" parent="1" source="gRnNfKeBFgU3KXUvMVqS-66" target="gRnNfKeBFgU3KXUvMVqS-53" edge="1">
          <mxGeometry relative="1" as="geometry" />
        </mxCell>
        <mxCell id="gRnNfKeBFgU3KXUvMVqS-66" value="Relationship" style="shape=rhombus;perimeter=rhombusPerimeter;whiteSpace=wrap;html=1;align=center;" parent="1" vertex="1">
          <mxGeometry x="-110" y="570" width="120" height="60" as="geometry" />
        </mxCell>
        <mxCell id="gRnNfKeBFgU3KXUvMVqS-69" value="&lt;div&gt;Messtechnik Übung&lt;/div&gt;&lt;div&gt;Messtechnik VL&lt;/div&gt;&lt;div&gt;...&lt;/div&gt;" style="ellipse;shape=cloud;whiteSpace=wrap;html=1;" parent="1" vertex="1">
          <mxGeometry x="155" y="680" width="120" height="80" as="geometry" />
        </mxCell>
        <mxCell id="gRnNfKeBFgU3KXUvMVqS-70" value="&lt;div&gt;Montag 14 Uhr&lt;/div&gt;&lt;div&gt;15.12.22&lt;br&gt;&lt;/div&gt;" style="ellipse;shape=cloud;whiteSpace=wrap;html=1;" parent="1" vertex="1">
          <mxGeometry x="-230" y="730" width="120" height="80" as="geometry" />
        </mxCell>
        <mxCell id="gRnNfKeBFgU3KXUvMVqS-71" value="&lt;div&gt;Montag 14 Uhr&lt;/div&gt;&lt;div&gt;15.12.22&lt;/div&gt;&lt;div&gt;T142&lt;br&gt;&lt;/div&gt;" style="ellipse;shape=cloud;whiteSpace=wrap;html=1;" parent="1" vertex="1">
          <mxGeometry x="-230" y="740" width="120" height="80" as="geometry" />
        </mxCell>
        <mxCell id="gRnNfKeBFgU3KXUvMVqS-73" style="edgeStyle=none;rounded=0;orthogonalLoop=1;jettySize=auto;html=1;endArrow=none;endFill=0;" parent="1" source="gRnNfKeBFgU3KXUvMVqS-72" target="gRnNfKeBFgU3KXUvMVqS-55" edge="1">
          <mxGeometry relative="1" as="geometry" />
        </mxCell>
        <mxCell id="gRnNfKeBFgU3KXUvMVqS-72" value="SWS" style="ellipse;whiteSpace=wrap;html=1;align=center;" parent="1" vertex="1">
          <mxGeometry x="300" y="90" width="100" height="40" as="geometry" />
        </mxCell>
        <mxCell id="gRnNfKeBFgU3KXUvMVqS-75" style="edgeStyle=none;rounded=0;orthogonalLoop=1;jettySize=auto;html=1;endArrow=none;endFill=0;" parent="1" source="gRnNfKeBFgU3KXUvMVqS-74" target="gRnNfKeBFgU3KXUvMVqS-53" edge="1">
          <mxGeometry relative="1" as="geometry" />
        </mxCell>
        <mxCell id="gRnNfKeBFgU3KXUvMVqS-74" value="Summe SWS" style="ellipse;whiteSpace=wrap;html=1;align=center;" parent="1" vertex="1">
          <mxGeometry x="400" y="290" width="100" height="40" as="geometry" />
        </mxCell>
        <mxCell id="gRnNfKeBFgU3KXUvMVqS-80" value="m" style="edgeStyle=none;rounded=0;orthogonalLoop=1;jettySize=auto;html=1;endArrow=none;endFill=0;" parent="1" source="gRnNfKeBFgU3KXUvMVqS-22" target="gRnNfKeBFgU3KXUvMVqS-24" edge="1">
          <mxGeometry relative="1" as="geometry">
            <mxPoint x="462.5" y="150" as="sourcePoint" />
          </mxGeometry>
        </mxCell>
        <mxCell id="gRnNfKeBFgU3KXUvMVqS-82" style="edgeStyle=none;rounded=0;orthogonalLoop=1;jettySize=auto;html=1;endArrow=none;endFill=0;" parent="1" source="gRnNfKeBFgU3KXUvMVqS-81" target="gRnNfKeBFgU3KXUvMVqS-9" edge="1">
          <mxGeometry relative="1" as="geometry" />
        </mxCell>
        <mxCell id="gRnNfKeBFgU3KXUvMVqS-81" value="Plätze" style="ellipse;whiteSpace=wrap;html=1;align=center;" parent="1" vertex="1">
          <mxGeometry x="345" y="780" width="100" height="40" as="geometry" />
        </mxCell>
        <mxCell id="gRnNfKeBFgU3KXUvMVqS-84" style="edgeStyle=none;rounded=0;orthogonalLoop=1;jettySize=auto;html=1;endArrow=none;endFill=0;" parent="1" source="gRnNfKeBFgU3KXUvMVqS-83" target="gRnNfKeBFgU3KXUvMVqS-9" edge="1">
          <mxGeometry relative="1" as="geometry" />
        </mxCell>
        <mxCell id="gRnNfKeBFgU3KXUvMVqS-83" value="SWS" style="ellipse;whiteSpace=wrap;html=1;align=center;" parent="1" vertex="1">
          <mxGeometry x="340" y="600" width="100" height="40" as="geometry" />
        </mxCell>
        <mxCell id="gRnNfKeBFgU3KXUvMVqS-86" style="edgeStyle=none;rounded=0;orthogonalLoop=1;jettySize=auto;html=1;endArrow=none;endFill=0;" parent="1" source="gRnNfKeBFgU3KXUvMVqS-85" target="gRnNfKeBFgU3KXUvMVqS-22" edge="1">
          <mxGeometry relative="1" as="geometry" />
        </mxCell>
        <mxCell id="gRnNfKeBFgU3KXUvMVqS-85" value="Anzahl Stud." style="ellipse;whiteSpace=wrap;html=1;align=center;" parent="1" vertex="1">
          <mxGeometry x="650" y="60" width="100" height="40" as="geometry" />
        </mxCell>
        <mxCell id="gRnNfKeBFgU3KXUvMVqS-88" style="edgeStyle=none;rounded=0;orthogonalLoop=1;jettySize=auto;html=1;exitX=1;exitY=0.75;exitDx=0;exitDy=0;endArrow=none;endFill=0;" parent="1" edge="1">
          <mxGeometry relative="1" as="geometry">
            <mxPoint x="930" y="230" as="sourcePoint" />
            <mxPoint x="930" y="230" as="targetPoint" />
          </mxGeometry>
        </mxCell>
        <mxCell id="gRnNfKeBFgU3KXUvMVqS-90" style="edgeStyle=none;rounded=0;orthogonalLoop=1;jettySize=auto;html=1;endArrow=none;endFill=0;" parent="1" source="gRnNfKeBFgU3KXUvMVqS-89" target="gRnNfKeBFgU3KXUvMVqS-65" edge="1">
          <mxGeometry relative="1" as="geometry" />
        </mxCell>
        <mxCell id="gRnNfKeBFgU3KXUvMVqS-89" value="Dauer SWS" style="ellipse;whiteSpace=wrap;html=1;align=center;" parent="1" vertex="1">
          <mxGeometry x="30" y="770" width="100" height="40" as="geometry" />
        </mxCell>
        <mxCell id="gRnNfKeBFgU3KXUvMVqS-91" value="&lt;div&gt;Aufwand&lt;/div&gt;&lt;div&gt;Entlastungsstunden, Studienarbeiten, BAs/MAs etc.&lt;br&gt;&lt;/div&gt;" style="rounded=1;arcSize=10;whiteSpace=wrap;html=1;align=center;" parent="1" vertex="1">
          <mxGeometry x="-85" y="20" width="130" height="70" as="geometry" />
        </mxCell>
        <mxCell id="gRnNfKeBFgU3KXUvMVqS-93" style="edgeStyle=none;rounded=0;orthogonalLoop=1;jettySize=auto;html=1;endArrow=none;endFill=0;" parent="1" source="gRnNfKeBFgU3KXUvMVqS-92" target="gRnNfKeBFgU3KXUvMVqS-91" edge="1">
          <mxGeometry relative="1" as="geometry" />
        </mxCell>
        <mxCell id="gRnNfKeBFgU3KXUvMVqS-94" style="edgeStyle=none;rounded=0;orthogonalLoop=1;jettySize=auto;html=1;endArrow=none;endFill=0;" parent="1" source="gRnNfKeBFgU3KXUvMVqS-92" target="gRnNfKeBFgU3KXUvMVqS-1" edge="1">
          <mxGeometry relative="1" as="geometry" />
        </mxCell>
        <mxCell id="gRnNfKeBFgU3KXUvMVqS-92" value="Relationship" style="shape=rhombus;perimeter=rhombusPerimeter;whiteSpace=wrap;html=1;align=center;" parent="1" vertex="1">
          <mxGeometry x="90" y="30" width="120" height="60" as="geometry" />
        </mxCell>
        <mxCell id="gRnNfKeBFgU3KXUvMVqS-96" style="edgeStyle=none;rounded=0;orthogonalLoop=1;jettySize=auto;html=1;endArrow=none;endFill=0;" parent="1" source="gRnNfKeBFgU3KXUvMVqS-95" target="gRnNfKeBFgU3KXUvMVqS-91" edge="1">
          <mxGeometry relative="1" as="geometry" />
        </mxCell>
        <mxCell id="gRnNfKeBFgU3KXUvMVqS-95" value="SWS" style="ellipse;whiteSpace=wrap;html=1;align=center;" parent="1" vertex="1">
          <mxGeometry x="-60" y="-100" width="100" height="40" as="geometry" />
        </mxCell>
        <mxCell id="gRnNfKeBFgU3KXUvMVqS-98" style="edgeStyle=none;rounded=0;orthogonalLoop=1;jettySize=auto;html=1;endArrow=none;endFill=0;" parent="1" source="gRnNfKeBFgU3KXUvMVqS-97" target="gRnNfKeBFgU3KXUvMVqS-91" edge="1">
          <mxGeometry relative="1" as="geometry" />
        </mxCell>
        <mxCell id="gRnNfKeBFgU3KXUvMVqS-97" value="Abschlussarbeiten" style="whiteSpace=wrap;html=1;align=center;" parent="1" vertex="1">
          <mxGeometry x="-220" y="-30" width="100" height="40" as="geometry" />
        </mxCell>
        <mxCell id="gRnNfKeBFgU3KXUvMVqS-102" value="Abrechnung" style="rounded=1;arcSize=10;whiteSpace=wrap;html=1;align=center;" parent="1" vertex="1">
          <mxGeometry x="-70" y="190" width="100" height="40" as="geometry" />
        </mxCell>
        <mxCell id="gRnNfKeBFgU3KXUvMVqS-104" style="edgeStyle=none;rounded=0;orthogonalLoop=1;jettySize=auto;html=1;endArrow=none;endFill=0;" parent="1" source="gRnNfKeBFgU3KXUvMVqS-103" target="gRnNfKeBFgU3KXUvMVqS-102" edge="1">
          <mxGeometry relative="1" as="geometry" />
        </mxCell>
        <mxCell id="gRnNfKeBFgU3KXUvMVqS-105" style="edgeStyle=none;rounded=0;orthogonalLoop=1;jettySize=auto;html=1;entryX=0.25;entryY=0;entryDx=0;entryDy=0;endArrow=none;endFill=0;" parent="1" source="gRnNfKeBFgU3KXUvMVqS-103" target="gRnNfKeBFgU3KXUvMVqS-53" edge="1">
          <mxGeometry relative="1" as="geometry" />
        </mxCell>
        <mxCell id="gRnNfKeBFgU3KXUvMVqS-103" value="Relationship" style="shape=rhombus;perimeter=rhombusPerimeter;whiteSpace=wrap;html=1;align=center;" parent="1" vertex="1">
          <mxGeometry x="80" y="180" width="120" height="60" as="geometry" />
        </mxCell>
        <mxCell id="gRnNfKeBFgU3KXUvMVqS-107" style="edgeStyle=none;rounded=0;orthogonalLoop=1;jettySize=auto;html=1;endArrow=none;endFill=0;" parent="1" source="gRnNfKeBFgU3KXUvMVqS-106" target="gRnNfKeBFgU3KXUvMVqS-102" edge="1">
          <mxGeometry relative="1" as="geometry" />
        </mxCell>
        <mxCell id="gRnNfKeBFgU3KXUvMVqS-108" style="edgeStyle=none;rounded=0;orthogonalLoop=1;jettySize=auto;html=1;endArrow=none;endFill=0;" parent="1" source="gRnNfKeBFgU3KXUvMVqS-106" target="gRnNfKeBFgU3KXUvMVqS-91" edge="1">
          <mxGeometry relative="1" as="geometry" />
        </mxCell>
        <mxCell id="gRnNfKeBFgU3KXUvMVqS-106" value="Relationship" style="shape=rhombus;perimeter=rhombusPerimeter;whiteSpace=wrap;html=1;align=center;" parent="1" vertex="1">
          <mxGeometry x="-80" y="110" width="120" height="60" as="geometry" />
        </mxCell>
        <mxCell id="gRnNfKeBFgU3KXUvMVqS-110" style="edgeStyle=none;rounded=0;orthogonalLoop=1;jettySize=auto;html=1;endArrow=none;endFill=0;" parent="1" source="gRnNfKeBFgU3KXUvMVqS-109" target="gRnNfKeBFgU3KXUvMVqS-3" edge="1">
          <mxGeometry relative="1" as="geometry" />
        </mxCell>
        <mxCell id="gRnNfKeBFgU3KXUvMVqS-111" style="edgeStyle=none;rounded=0;orthogonalLoop=1;jettySize=auto;html=1;endArrow=none;endFill=0;" parent="1" source="gRnNfKeBFgU3KXUvMVqS-109" target="gRnNfKeBFgU3KXUvMVqS-102" edge="1">
          <mxGeometry relative="1" as="geometry" />
        </mxCell>
        <mxCell id="gRnNfKeBFgU3KXUvMVqS-109" value="Relationship" style="shape=rhombus;perimeter=rhombusPerimeter;whiteSpace=wrap;html=1;align=center;" parent="1" vertex="1">
          <mxGeometry x="-70" y="250" width="100" height="40" as="geometry" />
        </mxCell>
        <mxCell id="wg3Lj3aLdknJIfBZmOL0-2" style="edgeStyle=orthogonalEdgeStyle;rounded=0;orthogonalLoop=1;jettySize=auto;html=1;endArrow=none;endFill=0;" parent="1" source="wg3Lj3aLdknJIfBZmOL0-1" target="gRnNfKeBFgU3KXUvMVqS-6" edge="1">
          <mxGeometry relative="1" as="geometry" />
        </mxCell>
        <mxCell id="wg3Lj3aLdknJIfBZmOL0-1" value="Gültig bis" style="ellipse;whiteSpace=wrap;html=1;align=center;" parent="1" vertex="1">
          <mxGeometry x="1140" y="280" width="100" height="40" as="geometry" />
        </mxCell>
        <mxCell id="SbNvKTwBTfNUbJ9mmIkN-1" value="Kommentar / Bearbeitungsschritt" style="rounded=1;arcSize=10;whiteSpace=wrap;html=1;align=center;" parent="1" vertex="1">
          <mxGeometry x="-280" y="440" width="100" height="40" as="geometry" />
        </mxCell>
        <mxCell id="SbNvKTwBTfNUbJ9mmIkN-2" value="Name" style="ellipse;whiteSpace=wrap;html=1;align=center;" parent="1" vertex="1">
          <mxGeometry x="100" y="-280" width="100" height="40" as="geometry" />
        </mxCell>
        <mxCell id="SbNvKTwBTfNUbJ9mmIkN-3" style="edgeStyle=none;rounded=0;orthogonalLoop=1;jettySize=auto;html=1;exitX=0.5;exitY=1;exitDx=0;exitDy=0;endArrow=none;endFill=0;" parent="1" source="SbNvKTwBTfNUbJ9mmIkN-2" target="iz5O2robkFM4ROenjmBi-12" edge="1">
          <mxGeometry relative="1" as="geometry">
            <mxPoint x="361.4304661822948" y="158.56953381770518" as="sourcePoint" />
            <mxPoint x="320" y="200" as="targetPoint" />
          </mxGeometry>
        </mxCell>
        <mxCell id="SbNvKTwBTfNUbJ9mmIkN-4" value="Version" style="ellipse;whiteSpace=wrap;html=1;align=center;" parent="1" vertex="1">
          <mxGeometry x="1060" y="100" width="100" height="40" as="geometry" />
        </mxCell>
        <mxCell id="SbNvKTwBTfNUbJ9mmIkN-5" style="rounded=0;orthogonalLoop=1;jettySize=auto;html=1;exitX=0.5;exitY=1;exitDx=0;exitDy=0;endArrow=none;endFill=0;" parent="1" source="SbNvKTwBTfNUbJ9mmIkN-4" target="gRnNfKeBFgU3KXUvMVqS-6" edge="1">
          <mxGeometry relative="1" as="geometry">
            <mxPoint x="1119.608394979728" y="258.2611388241239" as="sourcePoint" />
            <mxPoint x="1072.5" y="300" as="targetPoint" />
          </mxGeometry>
        </mxCell>
        <mxCell id="SbNvKTwBTfNUbJ9mmIkN-6" value="Bezeichnung" style="ellipse;whiteSpace=wrap;html=1;align=center;" parent="1" vertex="1">
          <mxGeometry x="580" y="620" width="100" height="40" as="geometry" />
        </mxCell>
        <mxCell id="SbNvKTwBTfNUbJ9mmIkN-7" style="edgeStyle=none;rounded=0;orthogonalLoop=1;jettySize=auto;html=1;exitX=0.5;exitY=0;exitDx=0;exitDy=0;endArrow=none;endFill=0;" parent="1" source="SbNvKTwBTfNUbJ9mmIkN-6" target="gRnNfKeBFgU3KXUvMVqS-2" edge="1">
          <mxGeometry relative="1" as="geometry">
            <mxPoint x="670" y="560" as="sourcePoint" />
            <mxPoint x="630" y="560" as="targetPoint" />
          </mxGeometry>
        </mxCell>
        <mxCell id="SbNvKTwBTfNUbJ9mmIkN-14" value="Nr" style="ellipse;whiteSpace=wrap;html=1;align=center;" parent="1" vertex="1">
          <mxGeometry x="680" y="340" width="100" height="40" as="geometry" />
        </mxCell>
        <mxCell id="SbNvKTwBTfNUbJ9mmIkN-15" style="edgeStyle=none;rounded=0;orthogonalLoop=1;jettySize=auto;html=1;endArrow=none;endFill=0;" parent="1" source="SbNvKTwBTfNUbJ9mmIkN-14" target="gRnNfKeBFgU3KXUvMVqS-36" edge="1">
          <mxGeometry relative="1" as="geometry">
            <mxPoint x="520" y="610" as="sourcePoint" />
            <mxPoint x="555" y="580" as="targetPoint" />
          </mxGeometry>
        </mxCell>
        <mxCell id="SbNvKTwBTfNUbJ9mmIkN-16" value="Bezeichnung" style="ellipse;whiteSpace=wrap;html=1;align=center;" parent="1" vertex="1">
          <mxGeometry x="900" y="20" width="100" height="40" as="geometry" />
        </mxCell>
        <mxCell id="SbNvKTwBTfNUbJ9mmIkN-17" style="edgeStyle=none;rounded=0;orthogonalLoop=1;jettySize=auto;html=1;exitX=0;exitY=0.5;exitDx=0;exitDy=0;entryX=1;entryY=0;entryDx=0;entryDy=0;endArrow=none;endFill=0;" parent="1" source="SbNvKTwBTfNUbJ9mmIkN-16" target="gRnNfKeBFgU3KXUvMVqS-5" edge="1">
          <mxGeometry relative="1" as="geometry">
            <mxPoint x="495.35533905932743" y="294.14213562373106" as="sourcePoint" />
            <mxPoint x="530" y="310" as="targetPoint" />
          </mxGeometry>
        </mxCell>
        <mxCell id="SbNvKTwBTfNUbJ9mmIkN-19" value="&lt;div&gt;Studiengang-&lt;/div&gt;&lt;div&gt;verantwortlicher&lt;/div&gt;" style="shape=rhombus;perimeter=rhombusPerimeter;whiteSpace=wrap;html=1;align=center;" parent="1" vertex="1">
          <mxGeometry x="415" y="10" width="120" height="60" as="geometry" />
        </mxCell>
        <mxCell id="SbNvKTwBTfNUbJ9mmIkN-20" style="edgeStyle=none;rounded=0;orthogonalLoop=1;jettySize=auto;html=1;entryX=0;entryY=0.25;entryDx=0;entryDy=0;endArrow=none;endFill=0;" parent="1" source="SbNvKTwBTfNUbJ9mmIkN-19" target="gRnNfKeBFgU3KXUvMVqS-5" edge="1">
          <mxGeometry relative="1" as="geometry">
            <mxPoint x="580" y="10" as="sourcePoint" />
            <mxPoint x="580" y="50" as="targetPoint" />
          </mxGeometry>
        </mxCell>
        <mxCell id="SbNvKTwBTfNUbJ9mmIkN-22" style="edgeStyle=none;rounded=0;orthogonalLoop=1;jettySize=auto;html=1;entryX=1;entryY=0.5;entryDx=0;entryDy=0;endArrow=none;endFill=0;" parent="1" source="SbNvKTwBTfNUbJ9mmIkN-19" target="gRnNfKeBFgU3KXUvMVqS-1" edge="1">
          <mxGeometry relative="1" as="geometry">
            <mxPoint x="470" y="35" as="sourcePoint" />
            <mxPoint x="530" y="140" as="targetPoint" />
          </mxGeometry>
        </mxCell>
        <mxCell id="SbNvKTwBTfNUbJ9mmIkN-24" value="Bezeichnung" style="ellipse;whiteSpace=wrap;html=1;align=center;" parent="1" vertex="1">
          <mxGeometry x="860" y="600" width="100" height="40" as="geometry" />
        </mxCell>
        <mxCell id="SbNvKTwBTfNUbJ9mmIkN-25" style="edgeStyle=none;rounded=0;orthogonalLoop=1;jettySize=auto;html=1;exitX=0.5;exitY=0;exitDx=0;exitDy=0;entryX=0.5;entryY=1;entryDx=0;entryDy=0;endArrow=none;endFill=0;" parent="1" source="SbNvKTwBTfNUbJ9mmIkN-24" target="gRnNfKeBFgU3KXUvMVqS-44" edge="1">
          <mxGeometry relative="1" as="geometry">
            <mxPoint x="520" y="610" as="sourcePoint" />
            <mxPoint x="555" y="580" as="targetPoint" />
          </mxGeometry>
        </mxCell>
        <mxCell id="SbNvKTwBTfNUbJ9mmIkN-26" value="Typ (Übung, Projekt, VL,...)" style="ellipse;whiteSpace=wrap;html=1;align=center;" parent="1" vertex="1">
          <mxGeometry x="205" y="770" width="100" height="40" as="geometry" />
        </mxCell>
        <mxCell id="SbNvKTwBTfNUbJ9mmIkN-27" style="edgeStyle=none;rounded=0;orthogonalLoop=1;jettySize=auto;html=1;entryX=0.25;entryY=1;entryDx=0;entryDy=0;exitX=0.5;exitY=0;exitDx=0;exitDy=0;endArrow=none;endFill=0;" parent="1" source="SbNvKTwBTfNUbJ9mmIkN-26" target="gRnNfKeBFgU3KXUvMVqS-9" edge="1">
          <mxGeometry relative="1" as="geometry">
            <mxPoint x="388.6228392260332" y="791.1032760300382" as="sourcePoint" />
            <mxPoint x="352.5" y="750" as="targetPoint" />
          </mxGeometry>
        </mxCell>
        <mxCell id="SbNvKTwBTfNUbJ9mmIkN-28" value="isWS" style="ellipse;whiteSpace=wrap;html=1;align=center;" parent="1" vertex="1">
          <mxGeometry x="-180" y="360" width="100" height="40" as="geometry" />
        </mxCell>
        <mxCell id="SbNvKTwBTfNUbJ9mmIkN-29" style="edgeStyle=none;rounded=0;orthogonalLoop=1;jettySize=auto;html=1;exitX=0.5;exitY=0;exitDx=0;exitDy=0;entryX=0.25;entryY=1;entryDx=0;entryDy=0;endArrow=none;endFill=0;" parent="1" source="SbNvKTwBTfNUbJ9mmIkN-28" target="gRnNfKeBFgU3KXUvMVqS-3" edge="1">
          <mxGeometry relative="1" as="geometry">
            <mxPoint x="-90.8563906532836" y="323.68577070100355" as="sourcePoint" />
            <mxPoint x="-60" y="326.1538461538462" as="targetPoint" />
          </mxGeometry>
        </mxCell>
        <mxCell id="iz5O2robkFM4ROenjmBi-2" style="edgeStyle=orthogonalEdgeStyle;rounded=0;orthogonalLoop=1;jettySize=auto;html=1;endArrow=none;endFill=0;" edge="1" parent="1" source="iz5O2robkFM4ROenjmBi-1" target="gRnNfKeBFgU3KXUvMVqS-9">
          <mxGeometry relative="1" as="geometry" />
        </mxCell>
        <mxCell id="iz5O2robkFM4ROenjmBi-1" value="ECTS" style="ellipse;whiteSpace=wrap;html=1;align=center;" vertex="1" parent="1">
          <mxGeometry x="265" y="850" width="100" height="40" as="geometry" />
        </mxCell>
        <mxCell id="iz5O2robkFM4ROenjmBi-4" style="rounded=0;orthogonalLoop=1;jettySize=auto;html=1;endArrow=none;endFill=0;" edge="1" parent="1" source="iz5O2robkFM4ROenjmBi-3" target="gRnNfKeBFgU3KXUvMVqS-36">
          <mxGeometry relative="1" as="geometry" />
        </mxCell>
        <mxCell id="iz5O2robkFM4ROenjmBi-5" style="rounded=0;orthogonalLoop=1;jettySize=auto;html=1;endArrow=none;endFill=0;" edge="1" parent="1" source="iz5O2robkFM4ROenjmBi-3" target="gRnNfKeBFgU3KXUvMVqS-22">
          <mxGeometry relative="1" as="geometry" />
        </mxCell>
        <mxCell id="iz5O2robkFM4ROenjmBi-3" value="Relationship" style="shape=rhombus;perimeter=rhombusPerimeter;whiteSpace=wrap;html=1;align=center;" vertex="1" parent="1">
          <mxGeometry x="535" y="230" width="120" height="60" as="geometry" />
        </mxCell>
        <mxCell id="iz5O2robkFM4ROenjmBi-7" value="n" style="edgeStyle=none;rounded=0;orthogonalLoop=1;jettySize=auto;html=1;endArrow=none;endFill=0;" edge="1" parent="1" source="iz5O2robkFM4ROenjmBi-6" target="gRnNfKeBFgU3KXUvMVqS-2">
          <mxGeometry relative="1" as="geometry" />
        </mxCell>
        <mxCell id="iz5O2robkFM4ROenjmBi-8" value="m" style="edgeStyle=none;rounded=0;orthogonalLoop=1;jettySize=auto;html=1;endArrow=none;endFill=0;" edge="1" parent="1" source="iz5O2robkFM4ROenjmBi-6" target="gRnNfKeBFgU3KXUvMVqS-6">
          <mxGeometry relative="1" as="geometry" />
        </mxCell>
        <mxCell id="iz5O2robkFM4ROenjmBi-6" value="gehört" style="shape=rhombus;perimeter=rhombusPerimeter;whiteSpace=wrap;html=1;align=center;" vertex="1" parent="1">
          <mxGeometry x="840" y="440" width="120" height="60" as="geometry" />
        </mxCell>
        <mxCell id="iz5O2robkFM4ROenjmBi-10" style="edgeStyle=none;rounded=0;orthogonalLoop=1;jettySize=auto;html=1;endArrow=none;endFill=0;" edge="1" parent="1" source="iz5O2robkFM4ROenjmBi-9" target="gRnNfKeBFgU3KXUvMVqS-5">
          <mxGeometry relative="1" as="geometry" />
        </mxCell>
        <mxCell id="iz5O2robkFM4ROenjmBi-11" style="edgeStyle=none;rounded=0;orthogonalLoop=1;jettySize=auto;html=1;endArrow=none;endFill=0;" edge="1" parent="1" source="iz5O2robkFM4ROenjmBi-9" target="gRnNfKeBFgU3KXUvMVqS-6">
          <mxGeometry relative="1" as="geometry" />
        </mxCell>
        <mxCell id="iz5O2robkFM4ROenjmBi-9" value="hat" style="shape=rhombus;perimeter=rhombusPerimeter;whiteSpace=wrap;html=1;align=center;" vertex="1" parent="1">
          <mxGeometry x="850" y="140" width="120" height="60" as="geometry" />
        </mxCell>
        <mxCell id="iz5O2robkFM4ROenjmBi-12" value="Nutzer" style="whiteSpace=wrap;html=1;align=center;" vertex="1" parent="1">
          <mxGeometry x="240" y="-190" width="100" height="40" as="geometry" />
        </mxCell>
        <mxCell id="iz5O2robkFM4ROenjmBi-15" style="edgeStyle=none;rounded=0;orthogonalLoop=1;jettySize=auto;html=1;entryX=0.67;entryY=0.1;entryDx=0;entryDy=0;entryPerimeter=0;endArrow=classic;endFill=1;" edge="1" parent="1" source="iz5O2robkFM4ROenjmBi-14" target="gRnNfKeBFgU3KXUvMVqS-1">
          <mxGeometry relative="1" as="geometry" />
        </mxCell>
        <mxCell id="iz5O2robkFM4ROenjmBi-14" value="Lehrbeauftragter" style="whiteSpace=wrap;html=1;align=center;" vertex="1" parent="1">
          <mxGeometry x="460" y="-170" width="100" height="40" as="geometry" />
        </mxCell>
        <mxCell id="iz5O2robkFM4ROenjmBi-19" style="edgeStyle=none;rounded=0;orthogonalLoop=1;jettySize=auto;html=1;endArrow=none;endFill=0;" edge="1" parent="1" source="iz5O2robkFM4ROenjmBi-20" target="gRnNfKeBFgU3KXUvMVqS-53">
          <mxGeometry relative="1" as="geometry">
            <mxPoint x="394.76121364481105" y="450.9515170560139" as="sourcePoint" />
          </mxGeometry>
        </mxCell>
        <mxCell id="iz5O2robkFM4ROenjmBi-20" value="&lt;div&gt;Changed_at&lt;/div&gt;" style="ellipse;whiteSpace=wrap;html=1;align=center;fontStyle=4;" vertex="1" parent="1">
          <mxGeometry x="350" y="440" width="100" height="40" as="geometry" />
        </mxCell>
        <mxCell id="iz5O2robkFM4ROenjmBi-23" style="edgeStyle=none;rounded=0;orthogonalLoop=1;jettySize=auto;html=1;endArrow=none;endFill=0;" edge="1" parent="1" source="iz5O2robkFM4ROenjmBi-22" target="gRnNfKeBFgU3KXUvMVqS-53">
          <mxGeometry relative="1" as="geometry" />
        </mxCell>
        <mxCell id="iz5O2robkFM4ROenjmBi-22" value="ID" style="ellipse;whiteSpace=wrap;html=1;align=center;fontStyle=4;" vertex="1" parent="1">
          <mxGeometry x="390" y="370" width="100" height="40" as="geometry" />
        </mxCell>
        <mxCell id="iz5O2robkFM4ROenjmBi-24" style="edgeStyle=none;rounded=0;orthogonalLoop=1;jettySize=auto;html=1;exitX=1;exitY=1;exitDx=0;exitDy=0;endArrow=none;endFill=0;" edge="1" parent="1" source="iz5O2robkFM4ROenjmBi-22" target="iz5O2robkFM4ROenjmBi-22">
          <mxGeometry relative="1" as="geometry" />
        </mxCell>
        <mxCell id="iz5O2robkFM4ROenjmBi-28" style="edgeStyle=none;rounded=0;orthogonalLoop=1;jettySize=auto;html=1;endArrow=none;endFill=0;" edge="1" parent="1" source="iz5O2robkFM4ROenjmBi-27" target="SbNvKTwBTfNUbJ9mmIkN-1">
          <mxGeometry relative="1" as="geometry" />
        </mxCell>
        <mxCell id="iz5O2robkFM4ROenjmBi-27" value="Created_at" style="ellipse;whiteSpace=wrap;html=1;align=center;" vertex="1" parent="1">
          <mxGeometry x="-320" y="520" width="100" height="40" as="geometry" />
        </mxCell>
        <mxCell id="iz5O2robkFM4ROenjmBi-30" style="edgeStyle=none;rounded=0;orthogonalLoop=1;jettySize=auto;html=1;endArrow=none;endFill=0;" edge="1" parent="1" source="iz5O2robkFM4ROenjmBi-29" target="SbNvKTwBTfNUbJ9mmIkN-1">
          <mxGeometry relative="1" as="geometry" />
        </mxCell>
        <mxCell id="iz5O2robkFM4ROenjmBi-29" value="inhalt" style="ellipse;whiteSpace=wrap;html=1;align=center;" vertex="1" parent="1">
          <mxGeometry x="-390" y="440" width="100" height="40" as="geometry" />
        </mxCell>
        <mxCell id="iz5O2robkFM4ROenjmBi-32" style="edgeStyle=none;rounded=0;orthogonalLoop=1;jettySize=auto;html=1;entryX=0;entryY=0.75;entryDx=0;entryDy=0;endArrow=none;endFill=0;" edge="1" parent="1" source="iz5O2robkFM4ROenjmBi-31" target="gRnNfKeBFgU3KXUvMVqS-53">
          <mxGeometry relative="1" as="geometry" />
        </mxCell>
        <mxCell id="iz5O2robkFM4ROenjmBi-33" style="edgeStyle=none;rounded=0;orthogonalLoop=1;jettySize=auto;html=1;endArrow=none;endFill=0;" edge="1" parent="1" source="iz5O2robkFM4ROenjmBi-31" target="SbNvKTwBTfNUbJ9mmIkN-1">
          <mxGeometry relative="1" as="geometry" />
        </mxCell>
        <mxCell id="iz5O2robkFM4ROenjmBi-31" value="Relationship" style="shape=rhombus;perimeter=rhombusPerimeter;whiteSpace=wrap;html=1;align=center;" vertex="1" parent="1">
          <mxGeometry x="-90" y="430" width="120" height="60" as="geometry" />
        </mxCell>
        <mxCell id="iz5O2robkFM4ROenjmBi-43" value="ist ein" style="edgeStyle=none;rounded=0;orthogonalLoop=1;jettySize=auto;html=1;endArrow=classic;endFill=1;" edge="1" parent="1" source="iz5O2robkFM4ROenjmBi-34" target="iz5O2robkFM4ROenjmBi-42">
          <mxGeometry relative="1" as="geometry" />
        </mxCell>
        <mxCell id="iz5O2robkFM4ROenjmBi-34" value="is_versionable" style="whiteSpace=wrap;html=1;align=center;" vertex="1" parent="1">
          <mxGeometry x="-950" width="100" height="40" as="geometry" />
        </mxCell>
        <mxCell id="iz5O2robkFM4ROenjmBi-37" value="ist ein" style="edgeStyle=none;rounded=0;orthogonalLoop=1;jettySize=auto;html=1;endArrow=classic;endFill=1;" edge="1" parent="1" source="iz5O2robkFM4ROenjmBi-35" target="iz5O2robkFM4ROenjmBi-34">
          <mxGeometry relative="1" as="geometry" />
        </mxCell>
        <mxCell id="iz5O2robkFM4ROenjmBi-35" value="is_commentable" style="whiteSpace=wrap;html=1;align=center;fillColor=#ffe6cc;strokeColor=#d79b00;" vertex="1" parent="1">
          <mxGeometry x="-950" y="150" width="100" height="40" as="geometry" />
        </mxCell>
        <mxCell id="iz5O2robkFM4ROenjmBi-36" value="Entity" style="whiteSpace=wrap;html=1;align=center;" vertex="1" parent="1">
          <mxGeometry x="-950" y="280" width="100" height="40" as="geometry" />
        </mxCell>
        <mxCell id="iz5O2robkFM4ROenjmBi-39" style="edgeStyle=none;rounded=0;orthogonalLoop=1;jettySize=auto;html=1;endArrow=none;endFill=0;" edge="1" parent="1" source="iz5O2robkFM4ROenjmBi-38" target="iz5O2robkFM4ROenjmBi-42">
          <mxGeometry relative="1" as="geometry" />
        </mxCell>
        <mxCell id="iz5O2robkFM4ROenjmBi-38" value="ID" style="ellipse;whiteSpace=wrap;html=1;align=center;" vertex="1" parent="1">
          <mxGeometry x="-680" y="-160" width="100" height="40" as="geometry" />
        </mxCell>
        <mxCell id="iz5O2robkFM4ROenjmBi-41" style="edgeStyle=none;rounded=0;orthogonalLoop=1;jettySize=auto;html=1;endArrow=none;endFill=0;" edge="1" parent="1" source="iz5O2robkFM4ROenjmBi-40" target="iz5O2robkFM4ROenjmBi-34">
          <mxGeometry relative="1" as="geometry" />
        </mxCell>
        <mxCell id="iz5O2robkFM4ROenjmBi-40" value="changed_at" style="ellipse;whiteSpace=wrap;html=1;align=center;" vertex="1" parent="1">
          <mxGeometry x="-680" y="35" width="100" height="40" as="geometry" />
        </mxCell>
        <mxCell id="iz5O2robkFM4ROenjmBi-42" value="is_object" style="whiteSpace=wrap;html=1;align=center;" vertex="1" parent="1">
          <mxGeometry x="-950" y="-150" width="100" height="40" as="geometry" />
        </mxCell>
        <mxCell id="iz5O2robkFM4ROenjmBi-45" style="edgeStyle=none;rounded=0;orthogonalLoop=1;jettySize=auto;html=1;endArrow=none;endFill=0;" edge="1" parent="1" source="iz5O2robkFM4ROenjmBi-44" target="iz5O2robkFM4ROenjmBi-35">
          <mxGeometry relative="1" as="geometry" />
        </mxCell>
        <mxCell id="iz5O2robkFM4ROenjmBi-47" style="edgeStyle=none;rounded=0;orthogonalLoop=1;jettySize=auto;html=1;endArrow=none;endFill=0;" edge="1" parent="1" source="iz5O2robkFM4ROenjmBi-44" target="iz5O2robkFM4ROenjmBi-46">
          <mxGeometry relative="1" as="geometry" />
        </mxCell>
        <mxCell id="iz5O2robkFM4ROenjmBi-44" value="Relationship" style="shape=rhombus;perimeter=rhombusPerimeter;whiteSpace=wrap;html=1;align=center;" vertex="1" parent="1">
          <mxGeometry x="-680" y="150" width="120" height="60" as="geometry" />
        </mxCell>
        <mxCell id="iz5O2robkFM4ROenjmBi-46" value="Kommentar" style="whiteSpace=wrap;html=1;align=center;" vertex="1" parent="1">
          <mxGeometry x="-460" y="170" width="100" height="40" as="geometry" />
        </mxCell>
        <mxCell id="iz5O2robkFM4ROenjmBi-48" value="Entity" style="whiteSpace=wrap;html=1;align=center;" vertex="1" parent="1">
          <mxGeometry x="-940" y="290" width="100" height="40" as="geometry" />
        </mxCell>
        <mxCell id="iz5O2robkFM4ROenjmBi-49" value="Entity" style="whiteSpace=wrap;html=1;align=center;" vertex="1" parent="1">
          <mxGeometry x="-930" y="300" width="100" height="40" as="geometry" />
        </mxCell>
        <mxCell id="iz5O2robkFM4ROenjmBi-60" style="edgeStyle=none;rounded=0;orthogonalLoop=1;jettySize=auto;html=1;dashed=1;endArrow=classic;endFill=1;" edge="1" parent="1" source="iz5O2robkFM4ROenjmBi-50" target="iz5O2robkFM4ROenjmBi-35">
          <mxGeometry relative="1" as="geometry" />
        </mxCell>
        <mxCell id="iz5O2robkFM4ROenjmBi-50" value="Entity" style="whiteSpace=wrap;html=1;align=center;" vertex="1" parent="1">
          <mxGeometry x="-920" y="310" width="100" height="40" as="geometry" />
        </mxCell>
        <mxCell id="iz5O2robkFM4ROenjmBi-55" value="Entity" style="whiteSpace=wrap;html=1;align=center;" vertex="1" parent="1">
          <mxGeometry x="-1140" y="110" width="100" height="40" as="geometry" />
        </mxCell>
        <mxCell id="iz5O2robkFM4ROenjmBi-56" value="Entity" style="whiteSpace=wrap;html=1;align=center;" vertex="1" parent="1">
          <mxGeometry x="-1130" y="120" width="100" height="40" as="geometry" />
        </mxCell>
        <mxCell id="iz5O2robkFM4ROenjmBi-57" value="Entity" style="whiteSpace=wrap;html=1;align=center;" vertex="1" parent="1">
          <mxGeometry x="-1120" y="130" width="100" height="40" as="geometry" />
        </mxCell>
        <mxCell id="iz5O2robkFM4ROenjmBi-59" style="edgeStyle=none;rounded=0;orthogonalLoop=1;jettySize=auto;html=1;endArrow=classic;endFill=1;dashed=1;" edge="1" parent="1" source="iz5O2robkFM4ROenjmBi-58" target="iz5O2robkFM4ROenjmBi-34">
          <mxGeometry relative="1" as="geometry" />
        </mxCell>
        <mxCell id="iz5O2robkFM4ROenjmBi-58" value="Entity" style="whiteSpace=wrap;html=1;align=center;" vertex="1" parent="1">
          <mxGeometry x="-1110" y="140" width="100" height="40" as="geometry" />
        </mxCell>
        <mxCell id="iz5O2robkFM4ROenjmBi-61" value="Entity" style="whiteSpace=wrap;html=1;align=center;" vertex="1" parent="1">
          <mxGeometry x="-1167.14" y="-60" width="100" height="40" as="geometry" />
        </mxCell>
        <mxCell id="iz5O2robkFM4ROenjmBi-62" value="Entity" style="whiteSpace=wrap;html=1;align=center;" vertex="1" parent="1">
          <mxGeometry x="-1157.14" y="-50" width="100" height="40" as="geometry" />
        </mxCell>
        <mxCell id="iz5O2robkFM4ROenjmBi-63" value="Entity" style="whiteSpace=wrap;html=1;align=center;" vertex="1" parent="1">
          <mxGeometry x="-1147.14" y="-40" width="100" height="40" as="geometry" />
        </mxCell>
        <mxCell id="iz5O2robkFM4ROenjmBi-64" style="edgeStyle=none;rounded=0;orthogonalLoop=1;jettySize=auto;html=1;endArrow=classic;endFill=1;dashed=1;" edge="1" parent="1" source="iz5O2robkFM4ROenjmBi-65" target="iz5O2robkFM4ROenjmBi-42">
          <mxGeometry relative="1" as="geometry">
            <mxPoint x="-949.9971428571429" y="-130" as="targetPoint" />
          </mxGeometry>
        </mxCell>
        <mxCell id="iz5O2robkFM4ROenjmBi-65" value="Entity" style="whiteSpace=wrap;html=1;align=center;" vertex="1" parent="1">
          <mxGeometry x="-1137.14" y="-30" width="100" height="40" as="geometry" />
        </mxCell>
        <mxCell id="iz5O2robkFM4ROenjmBi-67" style="edgeStyle=none;rounded=0;orthogonalLoop=1;jettySize=auto;html=1;endArrow=none;endFill=0;" edge="1" parent="1" source="iz5O2robkFM4ROenjmBi-66" target="iz5O2robkFM4ROenjmBi-46">
          <mxGeometry relative="1" as="geometry" />
        </mxCell>
        <mxCell id="iz5O2robkFM4ROenjmBi-66" value="Inhalt" style="ellipse;whiteSpace=wrap;html=1;align=center;" vertex="1" parent="1">
          <mxGeometry x="-450" y="70" width="100" height="40" as="geometry" />
        </mxCell>
        <mxCell id="iz5O2robkFM4ROenjmBi-69" style="edgeStyle=none;rounded=0;orthogonalLoop=1;jettySize=auto;html=1;endArrow=none;endFill=0;" edge="1" parent="1" source="iz5O2robkFM4ROenjmBi-68" target="gRnNfKeBFgU3KXUvMVqS-10">
          <mxGeometry relative="1" as="geometry" />
        </mxCell>
        <mxCell id="iz5O2robkFM4ROenjmBi-68" value="PF/WPF" style="ellipse;whiteSpace=wrap;html=1;align=center;" vertex="1" parent="1">
          <mxGeometry x="680" y="430" width="100" height="40" as="geometry" />
        </mxCell>
        <mxCell id="iz5O2robkFM4ROenjmBi-71" style="edgeStyle=none;rounded=0;orthogonalLoop=1;jettySize=auto;html=1;endArrow=none;endFill=0;" edge="1" parent="1" source="iz5O2robkFM4ROenjmBi-70" target="gRnNfKeBFgU3KXUvMVqS-56">
          <mxGeometry relative="1" as="geometry" />
        </mxCell>
        <mxCell id="iz5O2robkFM4ROenjmBi-70" value="SWS (automatische Aufteilung bei 1:n)" style="ellipse;whiteSpace=wrap;html=1;align=center;" vertex="1" parent="1">
          <mxGeometry x="70" y="520" width="135" height="60" as="geometry" />
        </mxCell>
        <mxCell id="iz5O2robkFM4ROenjmBi-73" style="edgeStyle=none;rounded=0;orthogonalLoop=1;jettySize=auto;html=1;endArrow=none;endFill=0;" edge="1" parent="1" source="iz5O2robkFM4ROenjmBi-72" target="gRnNfKeBFgU3KXUvMVqS-36">
          <mxGeometry relative="1" as="geometry" />
        </mxCell>
        <mxCell id="iz5O2robkFM4ROenjmBi-72" value="Anzahl Stud." style="ellipse;whiteSpace=wrap;html=1;align=center;" vertex="1" parent="1">
          <mxGeometry x="760" y="290" width="100" height="40" as="geometry" />
        </mxCell>
        <mxCell id="iz5O2robkFM4ROenjmBi-74" value="" style="curved=1;endArrow=classic;html=1;rounded=0;fillColor=#d5e8d4;strokeColor=#82b366;strokeWidth=3;startArrow=none;" edge="1" parent="1" source="iz5O2robkFM4ROenjmBi-80">
          <mxGeometry width="50" height="50" relative="1" as="geometry">
            <mxPoint x="430" y="120" as="sourcePoint" />
            <mxPoint x="480" y="280" as="targetPoint" />
            <Array as="points">
              <mxPoint x="390" y="100" />
              <mxPoint x="510" y="200" />
            </Array>
          </mxGeometry>
        </mxCell>
        <mxCell id="iz5O2robkFM4ROenjmBi-75" value="" style="curved=1;endArrow=classic;html=1;rounded=0;fillColor=#d5e8d4;strokeColor=#82b366;strokeWidth=3;" edge="1" parent="1">
          <mxGeometry width="50" height="50" relative="1" as="geometry">
            <mxPoint x="830" y="340" as="sourcePoint" />
            <mxPoint x="470" y="790" as="targetPoint" />
            <Array as="points">
              <mxPoint x="750" y="780" />
              <mxPoint x="590" y="830" />
            </Array>
          </mxGeometry>
        </mxCell>
        <mxCell id="iz5O2robkFM4ROenjmBi-76" value="" style="curved=1;endArrow=classic;html=1;rounded=0;fillColor=#d5e8d4;strokeColor=#82b366;strokeWidth=3;" edge="1" parent="1">
          <mxGeometry width="50" height="50" relative="1" as="geometry">
            <mxPoint x="480" y="780" as="sourcePoint" />
            <mxPoint x="450" y="340" as="targetPoint" />
            <Array as="points">
              <mxPoint x="560" y="730" />
              <mxPoint x="530" y="610" />
              <mxPoint x="450" y="550" />
            </Array>
          </mxGeometry>
        </mxCell>
        <mxCell id="iz5O2robkFM4ROenjmBi-78" style="edgeStyle=none;rounded=0;orthogonalLoop=1;jettySize=auto;html=1;strokeWidth=1;endArrow=none;endFill=0;" edge="1" parent="1" source="iz5O2robkFM4ROenjmBi-77" target="gRnNfKeBFgU3KXUvMVqS-56">
          <mxGeometry relative="1" as="geometry" />
        </mxCell>
        <mxCell id="iz5O2robkFM4ROenjmBi-77" value="SWS (manuell festgelegt)" style="ellipse;whiteSpace=wrap;html=1;align=center;" vertex="1" parent="1">
          <mxGeometry x="130" y="590" width="100" height="40" as="geometry" />
        </mxCell>
        <mxCell id="iz5O2robkFM4ROenjmBi-80" value="" style="ellipse;shape=cloud;whiteSpace=wrap;html=1;fillColor=none;strokeWidth=4;strokeColor=#FF8000;" vertex="1" parent="1">
          <mxGeometry x="330" y="70" width="380" height="260" as="geometry" />
        </mxCell>
        <mxCell id="iz5O2robkFM4ROenjmBi-84" value="" style="ellipse;shape=cloud;whiteSpace=wrap;html=1;fillColor=none;strokeWidth=4;strokeColor=#FF8000;" vertex="1" parent="1">
          <mxGeometry x="240" y="360" width="100" height="90" as="geometry" />
        </mxCell>
      </root>
    </mxGraphModel>
  </diagram>
</mxfile>
